<?xml version="1.0" encoding="UTF-8" standalone="no"?><svg
   xmlns:dc="http://purl.org/dc/elements/1.1/"
   xmlns:cc="http://creativecommons.org/ns#"
   xmlns:rdf="http://www.w3.org/1999/02/22-rdf-syntax-ns#"
   xmlns:svg="http://www.w3.org/2000/svg"
   xmlns="http://www.w3.org/2000/svg"
   xmlns:sodipodi="http://sodipodi.sourceforge.net/DTD/sodipodi-0.dtd"
   xmlns:inkscape="http://www.inkscape.org/namespaces/inkscape"
   version="1.1"
   id="Layer_1"
   x="0px"
   y="0px"
   width="1466.6px"
   height="457.5px"
   viewBox="13.8 47.5 1466.6 457.5"
   enable-background="new 13.8 47.5 1466.6 457.5"
   xml:space="preserve"
   inkscape:version="0.91 r13725"
   sodipodi:docname="TeamSky Logo.svg"><metadata
     id="metadata21"><rdf:RDF><cc:Work
         rdf:about=""><dc:format>image/svg+xml</dc:format><dc:type
           rdf:resource="http://purl.org/dc/dcmitype/StillImage" /></cc:Work></rdf:RDF></metadata><defs
     id="defs19" /><sodipodi:namedview
     pagecolor="#ffffff"
     bordercolor="#666666"
     borderopacity="1"
     objecttolerance="10"
     gridtolerance="10"
     guidetolerance="10"
     inkscape:pageopacity="0"
     inkscape:pageshadow="2"
     inkscape:window-width="1920"
     inkscape:window-height="1017"
     id="namedview17"
     showgrid="false"
     inkscape:zoom="0.19637257"
     inkscape:cx="733.29999"
     inkscape:cy="228.75"
     inkscape:window-x="-8"
     inkscape:window-y="32"
     inkscape:window-maximized="1"
     inkscape:current-layer="Layer_1" /><title
     id="title3">TeamSky Logo</title><path
     d="M1310.1,439.3c7.8,3.6,16.3,5.5,24.9,5.7c19.9,0.5,30.7-7.5,38.7-25l106.6-237.5c-6.9-3.1-14.4-4.9-22-5.1  c-13.7,0-32.1,2.5-43.8,30.5l-34.5,81.2l-67.5-110c-7.4-1.9-14.9-3-22.5-3.2c-19.8-0.6-38.8,8.2-51.1,23.8l-65.6,71.8l52.5,83.2  c9,15.3,25.8,24.1,43.5,22.9c10.3,0.1,20.5-1.8,30-5.7l-63.6-95.9l45-47.9l73.9,116.2L1310.1,439.3z M1170,349.5  c0,17.5-10.3,27.6-44.4,27.6c-4.5,0-0.6,0-15.6-0.9v-232c0-17.7,9.4-36.1,43.8-36.1c5.4-0.2,10.9,0.3,16.2,1.3V349.5z M1100.1,314.5  c0,32.6-21.3,56.5-64.7,61.1c-32.7,2-65.5,1-97.9-3.1c-0.8-3.7-1.3-7.6-1.3-11.4c0-28.4,15-35,30-35s38.7,2.6,56.2,2.6  c19.4,0,25.3-6.6,25.3-12.8c0-8.2-7.5-11.6-22.5-14.5l-41.2-7.9c-34.1-6.6-52.5-30-52.5-55.4c0-30.4,21.6-56,64-60.7  c30.9-2.2,61.9-1.2,92.6,3.1c0.8,3.6,1.2,7.3,1.2,10.9c0,28.4-15,34.6-29.5,34.6c-11.1,0-28.3-2-48-2s-29.3,5.6-29.3,12.3  s7.9,10.1,20.5,12.2l39.2,7.5C1082.8,263.4,1100.1,286.4,1100.1,314.5z"
     id="path5" /><rect
     x="832.5"
     y="47.5"
     width="22.5"
     height="457.5"
     id="rect7"
     style="fill:#00acc4;fill-opacity:1" /><path
     d="M525.8,372.9c-5.3,2.3-11,3.6-16.7,3.9c-9,0-20.6-0.9-23.5-10.2l-14.3-42.8h-75.8L380,366.6c-2.7,8.7-14,10.2-22.5,10.2  c-6.1,0.1-12.1-1.1-17.6-3.6l68.4-193.4c8-1.7,16.1-2.6,24.2-2.7c18.8,0,26.5,5.1,31,18.5L525.8,372.9z M406.7,295h53.2l-28.3-90  h2.8L406.7,295z"
     id="path9" /><path
     d="M707.7,208.9h5.5L675,346.7c-3.1,11.3-13.7,15-25.8,15c-6.8,0.6-13.6,0.5-20.3-0.5l-41-148.7h4.2l-14,154.4  c-0.9,8.6-9.7,10.6-18.5,10.6c-6.2-0.2-12.2-1.5-17.9-3.8l19.7-192.8c8.1-2.6,16.6-4,25.2-4.1c18.5,0,29.2,3.8,32.8,17.5L652.5,325  h-4.2l33.5-130.1c3.7-13.6,15.5-19,32.3-19c8.6,0.2,17.1,1.3,25.5,3.3l19.2,193.6c-6.1,2.1-12.4,3.2-18.8,3.4  c-9.2,0-18.2-2.7-19.1-11.6L707.7,208.9z"
     id="path11" /><path
     d="M75,212.5H15c-1-5.6-1.4-11.4-1.2-17.1c0.1-12.9,5.8-12.9,14-12.9h151.7c1,5.2,1.4,10.6,1.2,15.9c0,11.8-9.7,14.1-18.8,14.1  h-42v149.1c0,7.9-7.5,14.3-20.4,14.3c-6.4,0-17.1-0.9-24.6-1.5V212.5z"
     id="path13" /><path
     d="M213.1,370c-15,0-18.1,0-18.1-9V192.8c0-9.1,3.1-10.3,18.1-10.3h106.8c1.1,5.6,1.6,11.4,1.5,17.1c0,11.9-5.8,12.9-13.1,12.9  h-75.8v45h80.1c0,0,1.2,15,1.2,20.7c0,11.3-5.2,16.8-12.1,16.8h-69.1v45h90c0,7.5,1.2,10.7,1.2,16.2c0,12.1-5.5,13.8-12.8,13.8  H213.1z"
     id="path15" /></svg>